<?xml version="1.0" encoding="UTF-8"?>
<svg id="Camada_2" data-name="Camada 2" xmlns="http://www.w3.org/2000/svg" xmlns:xlink="http://www.w3.org/1999/xlink" viewBox="0 0 113.41 80.72">
  <defs>
    <style>
      .cls-1 {
        fill: url(#Gradiente_sem_nome_5);
      }

      .cls-2 {
        clip-path: url(#clippath-4);
      }

      .cls-3 {
        fill: url(#Gradiente_sem_nome_2);
      }

      .cls-4 {
        fill: #231f20;
        fill-rule: evenodd;
      }

      .cls-5 {
        fill: none;
      }

      .cls-6 {
        fill: url(#Gradiente_sem_nome);
      }

      .cls-7 {
        clip-path: url(#clippath-1);
      }

      .cls-8 {
        clip-path: url(#clippath-5);
      }

      .cls-9 {
        clip-path: url(#clippath-3);
      }

      .cls-10 {
        fill: url(#Gradiente_sem_nome_4);
      }

      .cls-11 {
        fill: url(#Gradiente_sem_nome_6);
      }

      .cls-12 {
        clip-path: url(#clippath-2);
      }

      .cls-13 {
        fill: url(#Gradiente_sem_nome_3);
      }

      .cls-14 {
        clip-path: url(#clippath);
      }
    </style>
    <clipPath id="clippath">
      <path class="cls-5" d="M1.96,57.3c-1.43,4.49-2.72,13.56.87,12.33,26.39-5.97,85.34-7.35,104.22-4.7,2.82-2.13,1.4-.96,3.86-4.56-13.86-2.71-37.67-7.03-58.43-6.92-1.22-.03-2.44-.04-3.67-.04-15.45,0-31.35,2.21-46.85,3.88"/>
    </clipPath>
    <linearGradient id="Gradiente_sem_nome" data-name="Gradiente sem nome" x1="-1651.29" y1="424.79" x2="-1650.29" y2="424.79" gradientTransform="translate(182310.25 46960.82) scale(110.4 -110.4)" gradientUnits="userSpaceOnUse">
      <stop offset="0" stop-color="#f48120"/>
      <stop offset=".07" stop-color="#f48120"/>
      <stop offset=".09" stop-color="#f48e1d"/>
      <stop offset=".18" stop-color="#f4bc13"/>
      <stop offset=".23" stop-color="#f4cf10"/>
      <stop offset=".43" stop-color="#f5d509"/>
      <stop offset=".48" stop-color="#f6d807"/>
      <stop offset=".75" stop-color="#fd0"/>
      <stop offset="1" stop-color="#f6921e"/>
    </linearGradient>
    <clipPath id="clippath-1">
      <path class="cls-5" d="M1.88,53.76c-1.57,4.04-2.64,9.11-1.21,14.14,27.13-6.39,91.64-9.01,107.45-4.09,3.15-2.59,5.31-7.5,4.04-9.94-16.41-2.29-35.09-3.14-52.84-3.14-23.06,0-44.54,1.44-57.43,3.03"/>
    </clipPath>
    <linearGradient id="Gradiente_sem_nome_2" data-name="Gradiente sem nome 2" x1="-1651.52" y1="424.81" x2="-1650.52" y2="424.81" gradientTransform="translate(185842.58 47862.37) scale(112.53 -112.53)" gradientUnits="userSpaceOnUse">
      <stop offset="0" stop-color="#f48120"/>
      <stop offset=".01" stop-color="#f48e1d"/>
      <stop offset=".07" stop-color="#f4bc13"/>
      <stop offset=".1" stop-color="#f4cf10"/>
      <stop offset=".19" stop-color="#f5d509"/>
      <stop offset=".21" stop-color="#f6d807"/>
      <stop offset=".48" stop-color="#f6d807"/>
      <stop offset=".91" stop-color="#fd0"/>
      <stop offset="1" stop-color="#f6921e"/>
    </linearGradient>
    <clipPath id="clippath-2">
      <path class="cls-5" d="M56.04,62.4c-15.79.28-32.16,3.41-48.08,5.89-1.36,4.55-2.59,13.66.83,12.29,25.11-7.04,81.22-10.82,99.18-8.93,2.69-2.24,1.34-1.01,3.68-4.71-11.6-1.89-30.51-4.7-48.34-4.7-2.45,0-4.88.05-7.27.17"/>
    </clipPath>
    <linearGradient id="Gradiente_sem_nome_3" data-name="Gradiente sem nome 3" x1="-1650.69" y1="424.76" x2="-1649.69" y2="424.76" gradientTransform="translate(173448.81 44702.1) scale(105.07 -105.07)" gradientUnits="userSpaceOnUse">
      <stop offset="0" stop-color="#005629"/>
      <stop offset=".04" stop-color="#005629"/>
      <stop offset=".18" stop-color="#028238"/>
      <stop offset=".24" stop-color="#03943f"/>
      <stop offset=".31" stop-color="#24a040"/>
      <stop offset=".48" stop-color="#72be44"/>
      <stop offset=".63" stop-color="#58a03d"/>
      <stop offset=".76" stop-color="#478d3a"/>
      <stop offset=".83" stop-color="#2d853b"/>
      <stop offset=".94" stop-color="#0c7c3e"/>
      <stop offset="1" stop-color="#00793f"/>
    </linearGradient>
    <clipPath id="clippath-3">
      <path class="cls-5" d="M7.89,64.75c-1.49,4.1-2.52,9.21-1.15,14.18,25.82-7.5,87.21-12.73,102.26-8.46,3-2.71,5.17-6.69,4.17-10.02-9.77-1.01-20.42-1.43-31.17-1.43-28.75,0-58.3,3.01-74.1,5.74"/>
    </clipPath>
    <linearGradient id="Gradiente_sem_nome_4" data-name="Gradiente sem nome 4" x1="-1650.95" y1="424.78" x2="-1649.95" y2="424.78" gradientTransform="translate(177175.87 45653.23) scale(107.31 -107.31)" gradientUnits="userSpaceOnUse">
      <stop offset="0" stop-color="#00803e"/>
      <stop offset=".04" stop-color="#00803e"/>
      <stop offset=".17" stop-color="#089e46"/>
      <stop offset=".26" stop-color="#0db04b"/>
      <stop offset=".3" stop-color="#14b04a"/>
      <stop offset=".35" stop-color="#27b349"/>
      <stop offset=".41" stop-color="#48b846"/>
      <stop offset=".48" stop-color="#72be44"/>
      <stop offset=".74" stop-color="#50b748"/>
      <stop offset="1" stop-color="#00974a"/>
    </linearGradient>
    <clipPath id="clippath-4">
      <path class="cls-5" d="M40.28,16.84c-4.51,3.71-8.87,10.76-3.9,26.32-1.37-9.39,3.1-16.31,7.95-20.6,4.23-3.73,7.84-8.23,5.29-21.45-.51,10.69-6.07,13.03-9.35,15.73"/>
    </clipPath>
    <linearGradient id="Gradiente_sem_nome_5" data-name="Gradiente sem nome 5" x1="-1649.47" y1="398.36" x2="-1648.47" y2="398.36" gradientTransform="translate(71007.72 17166.06) scale(43.04 -43.04)" gradientUnits="userSpaceOnUse">
      <stop offset="0" stop-color="#0b0204"/>
      <stop offset=".01" stop-color="#0b0204"/>
      <stop offset=".02" stop-color="#0d0103"/>
      <stop offset=".05" stop-color="#270001"/>
      <stop offset=".09" stop-color="#370000"/>
      <stop offset=".11" stop-color="#3d0000"/>
      <stop offset=".13" stop-color="#450101"/>
      <stop offset=".15" stop-color="#5b0406"/>
      <stop offset=".17" stop-color="#800a0d"/>
      <stop offset=".2" stop-color="#b31218"/>
      <stop offset=".23" stop-color="#ec1c24"/>
      <stop offset=".24" stop-color="#ed2b22"/>
      <stop offset=".28" stop-color="#f1541f"/>
      <stop offset=".33" stop-color="#f7951b"/>
      <stop offset=".34" stop-color="#f9a51a"/>
      <stop offset=".38" stop-color="#fab013"/>
      <stop offset=".44" stop-color="#ffca05"/>
      <stop offset=".59" stop-color="#faac15"/>
      <stop offset=".62" stop-color="#f9a51a"/>
      <stop offset=".95" stop-color="#ee4023"/>
      <stop offset="1" stop-color="#ee4023"/>
    </linearGradient>
    <clipPath id="clippath-5">
      <path class="cls-5" d="M39.66,16.71c-4.44,4.32-7.9,9.83-3.96,24.78-.91-10.28,4.51-16.21,8.27-19.64,3.77-3.43,7.54-8.43,5.48-21.86-.27,9.46-5.49,12.53-9.79,16.71"/>
    </clipPath>
    <linearGradient id="Gradiente_sem_nome_6" data-name="Gradiente sem nome 6" x1="-1649.4" y1="398.21" x2="-1648.4" y2="398.21" gradientTransform="translate(70627.26 17067.32) scale(42.81 -42.81)" gradientUnits="userSpaceOnUse">
      <stop offset="0" stop-color="#da2031"/>
      <stop offset=".07" stop-color="#d42030"/>
      <stop offset=".16" stop-color="#c4202d"/>
      <stop offset=".26" stop-color="#aa2129"/>
      <stop offset=".36" stop-color="#892225"/>
      <stop offset=".52" stop-color="#ba1e24"/>
      <stop offset=".66" stop-color="#ec1c24"/>
      <stop offset=".77" stop-color="#da1d26"/>
      <stop offset="1" stop-color="#ae222b"/>
    </linearGradient>
  </defs>
  <g id="Camada_1-2" data-name="Camada 1">
    <g class="cls-14">
      <rect class="cls-6" x="-.76" y="53.35" width="111.67" height="17.51"/>
    </g>
    <g class="cls-7">
      <rect class="cls-3" x="-.76" y="50.73" width="114.2" height="17.17"/>
    </g>
    <g class="cls-12">
      <rect class="cls-13" x="5.37" y="62.23" width="106.28" height="19.72"/>
    </g>
    <g class="cls-9">
      <rect class="cls-10" x="5.37" y="59.01" width="108.79" height="19.92"/>
    </g>
    <path class="cls-4" d="M23.93,20.99h13.67l-2.36,18.1,5.82-18.1h11.17l-2.28,26.68,4.24-26.68h7.26c4.57,0,7.95,1.07,10.11,3.19,1.79,1.75,2.83,4.29,3.15,7.62l1.72-10.81h8.86c4.29,0,7.38.62,9.26,1.85,1.88,1.24,2.82,3.26,2.82,6.04,0,2.26-.61,4.08-1.84,5.48-1.22,1.39-3.06,2.36-5.49,2.89,1.8.5,3.19,1.39,4.17,2.65.98,1.27,1.47,2.81,1.47,4.61,0,1.61-.34,3.14-1.01,4.57-.68,1.44-1.62,2.64-2.85,3.61-1.12.92-2.45,1.59-3.98,2-1.53.41-3.57.61-6.12.61h-10.74l1.46-9.21c-.94,2.23-2.07,4.02-3.38,5.35-1.38,1.39-2.96,2.38-4.75,2.97-1.78.58-4.57.88-8.36.88h-14.94l3.13-25.41-8.13,25.41h-6.48l-.4-25.46-4.85,25.46h-8.24l7.89-34.32ZM59.73,46.84c.06.02.13.03.2.03.07,0,.18.02.32.02.56,0,1.1-.14,1.6-.4.51-.26.94-.63,1.28-1.11.56-.75,1.11-2.28,1.62-4.59.52-2.31.78-4.61.78-6.9,0-1.48-.24-2.58-.71-3.27-.48-.7-1.25-1.08-2.32-1.16l-2.77,17.39ZM81.57,48.14c.16.03.32.06.5.07.17.02.39.02.66.02,1.12,0,1.98-.38,2.57-1.13.59-.76.88-1.83.88-3.24,0-1.08-.26-1.89-.8-2.43-.53-.54-1.33-.81-2.41-.81h-.28l-1.11,7.52ZM83.69,34.22c.12.02.26.02.39.03.15,0,.36.02.66.02,1.07,0,1.91-.31,2.53-.91.62-.6.93-1.42.93-2.46,0-.88-.25-1.54-.74-1.98-.5-.45-1.22-.67-2.17-.67-.08,0-.19,0-.33.02-.14.01-.25.02-.3.02l-.96,5.92Z"/>
    <g class="cls-2">
      <rect class="cls-1" x="18.4" y="2.63" width="46.8" height="39.01" transform="translate(1.73 47.27) rotate(-60)"/>
    </g>
    <g class="cls-8">
      <rect class="cls-11" x="18.73" y="1.82" width="45.81" height="37.86" transform="translate(2.85 46.43) rotate(-60)"/>
    </g>
  </g>
</svg>